<svg xmlns="http://www.w3.org/2000/svg" width="960" height="470" viewBox="0 0 960 470" role="img" aria-labelledby="title description">
<title id="title">Martino Lotto profile terminal</title><desc id="description">Terminal card with Martino Lotto's profile, focus and interests.</desc><defs><pattern id="grid" width="24" height="24" patternUnits="userSpaceOnUse"><path d="M24 0H0V24" fill="none" stroke="#30363D" stroke-opacity=".32"/></pattern></defs><rect width="960" height="470" rx="18" fill="#161B22"/><rect width="960" height="470" rx="18" fill="url(#grid)"/><rect x="10" y="10" width="940" height="450" rx="13" fill="#161B22" fill-opacity=".94" stroke="#30363D" stroke-width="2"/><circle cx="37" cy="38" r="6" fill="#F472B6"/><circle cx="58" cy="38" r="6" fill="#F0B429"/><circle cx="79" cy="38" r="6" fill="#3FB950"/><text x="108" y="44" fill="#8B949E" font-family="JetBrains Mono, ui-monospace, monospace" font-size="15">martino@fedora:~ — profile terminal</text><path d="M26 64H934" stroke="#30363D"/>
<text x="48" y="108" fill="#3FB950" font-family="JetBrains Mono, ui-monospace, monospace" font-size="19" font-weight="700">martino@fedora:~$ whoami</text><text x="48" y="151" fill="#8B5CF6" font-family="JetBrains Mono, ui-monospace, monospace" font-size="25" font-weight="700">Martino Lotto</text><path d="M48 171H912" stroke="#30363D"/><g font-family="JetBrains Mono, ui-monospace, monospace" font-size="17"><g fill="#8B949E"><text x="48" y="210">name</text><text x="48" y="241">location</text><text x="48" y="272">role</text><text x="48" y="303">focus</text><text x="48" y="334">os</text></g><g fill="#C9D1D9"><text x="221" y="210">Martino Lotto</text><text x="221" y="241">Formosa, Argentina</text><text x="221" y="272">Software Development Student</text><text x="221" y="303">Backend Development</text><text x="221" y="334">Fedora Linux</text></g></g><path d="M48 356H912" stroke="#30363D"/><text x="48" y="388" fill="#22D3EE" font-family="JetBrains Mono, ui-monospace, monospace" font-size="16" font-weight="700">interests:</text><text x="180" y="388" fill="#C9D1D9" font-family="JetBrains Mono, ui-monospace, monospace" font-size="13">backend · databases · software engineering · linux · AI-assisted development</text><text x="48" y="421" fill="#22D3EE" font-family="JetBrains Mono, ui-monospace, monospace" font-size="16" font-weight="700">status:</text><text x="140" y="421" fill="#C9D1D9" font-family="JetBrains Mono, ui-monospace, monospace" font-size="16">learning · building · experimenting</text><text x="48" y="447" fill="#3FB950" font-family="JetBrains Mono, ui-monospace, monospace" font-size="16">$</text><rect x="67" y="432" width="9" height="18" fill="#8B5CF6"><animate attributeName="opacity" values="1;0;1" dur="1.1s" repeatCount="indefinite"/></rect>
</svg>
